<svg width="25" height="25" viewBox="0 0 25 25" fill="none" xmlns="http://www.w3.org/2000/svg">
<path opacity="0.4" d="M12.5 22.5C18.0228 22.5 22.5 18.0228 22.5 12.5C22.5 6.97715 18.0228 2.5 12.5 2.5C6.97715 2.5 2.5 6.97715 2.5 12.5C2.5 18.0228 6.97715 22.5 12.5 22.5Z" fill="#616A7A"/>
<path d="M16.5 11.75H13.25V8.5C13.25 8.09 12.91 7.75 12.5 7.75C12.09 7.75 11.75 8.09 11.75 8.5V11.75H8.5C8.09 11.75 7.75 12.09 7.75 12.5C7.75 12.91 8.09 13.25 8.5 13.25H11.75V16.5C11.75 16.91 12.09 17.25 12.5 17.25C12.91 17.25 13.25 16.91 13.25 16.5V13.25H16.5C16.91 13.25 17.25 12.91 17.25 12.5C17.25 12.09 16.91 11.75 16.5 11.75Z" fill="#4A5568"/>
</svg>
