<svg width="16" height="16" viewBox="0 0 16 16" fill="none" xmlns="http://www.w3.org/2000/svg">
<g clip-path="url(#clip0_2796_25859)">
<path d="M2.28571 11.4285C1.02543 11.4285 0 12.4539 0 13.7142C0 14.9745 1.02543 15.9999 2.28571 15.9999C3.546 15.9999 4.57143 14.9745 4.57143 13.7142C4.57143 12.4539 3.546 11.4285 2.28571 11.4285Z" fill="#616A7A"/>
<path d="M8.00007 11.4285C6.73978 11.4285 5.71436 12.4539 5.71436 13.7142C5.71436 14.9745 6.73978 15.9999 8.00007 15.9999C9.26036 15.9999 10.2858 14.9745 10.2858 13.7142C10.2858 12.4539 9.26036 11.4285 8.00007 11.4285Z" fill="#616A7A"/>
<path d="M13.7144 11.4285C12.4541 11.4285 11.4287 12.4539 11.4287 13.7142C11.4287 14.9745 12.4541 15.9999 13.7144 15.9999C14.9747 15.9999 16.0001 14.9745 16.0001 13.7142C16.0001 12.4539 14.9747 11.4285 13.7144 11.4285Z" fill="#616A7A"/>
<path d="M2.28571 5.71436C1.02543 5.71436 0 6.73978 0 8.00007C0 9.26036 1.02543 10.2858 2.28571 10.2858C3.546 10.2858 4.57143 9.26036 4.57143 8.00007C4.57143 6.73978 3.546 5.71436 2.28571 5.71436Z" fill="#616A7A"/>
<path d="M8.00007 5.71436C6.73978 5.71436 5.71436 6.73978 5.71436 8.00007C5.71436 9.26036 6.73978 10.2858 8.00007 10.2858C9.26036 10.2858 10.2858 9.26036 10.2858 8.00007C10.2858 6.73978 9.26036 5.71436 8.00007 5.71436Z" fill="#616A7A"/>
<path d="M13.7144 5.71436C12.4541 5.71436 11.4287 6.73978 11.4287 8.00007C11.4287 9.26036 12.4541 10.2858 13.7144 10.2858C14.9747 10.2858 16.0001 9.26036 16.0001 8.00007C16.0001 6.73978 14.9747 5.71436 13.7144 5.71436Z" fill="#616A7A"/>
<path d="M2.28571 0C1.02543 0 0 1.02543 0 2.28571C0 3.546 1.02543 4.57143 2.28571 4.57143C3.546 4.57143 4.57143 3.546 4.57143 2.28571C4.57143 1.02543 3.546 0 2.28571 0Z" fill="#616A7A"/>
<path d="M8.00007 0C6.73978 0 5.71436 1.02543 5.71436 2.28571C5.71436 3.546 6.73978 4.57143 8.00007 4.57143C9.26036 4.57143 10.2858 3.546 10.2858 2.28571C10.2858 1.02543 9.26036 0 8.00007 0Z" fill="#616A7A"/>
<path d="M13.7144 4.57143C14.9747 4.57143 16.0001 3.546 16.0001 2.28571C16.0001 1.02543 14.9747 0 13.7144 0C12.4541 0 11.4287 1.02543 11.4287 2.28571C11.4287 3.546 12.4541 4.57143 13.7144 4.57143Z" fill="#616A7A"/>
</g>
<defs>
<clipPath id="clip0_2796_25859">
<rect width="16" height="16" fill="white"/>
</clipPath>
</defs>
</svg>
