<svg width="25" height="25" viewBox="0 0 25 25" fill="none" xmlns="http://www.w3.org/2000/svg">
<path opacity="0.4" d="M21.5901 22C21.5901 22.28 21.3701 22.5 21.0901 22.5H3.91016C3.63016 22.5 3.41016 22.28 3.41016 22C3.41016 17.86 7.49015 14.5 12.5002 14.5C13.5302 14.5 14.5302 14.64 15.4502 14.91C14.8602 15.61 14.5002 16.52 14.5002 17.5C14.5002 18.25 14.7101 18.96 15.0801 19.56C15.2801 19.9 15.5401 20.21 15.8401 20.47C16.5401 21.11 17.4702 21.5 18.5002 21.5C19.6202 21.5 20.6302 21.04 21.3502 20.3C21.5102 20.84 21.5901 21.41 21.5901 22Z" fill="#C92B33"/>
<path d="M21.47 14.83C20.75 14.01 19.68 13.5 18.5 13.5C17.38 13.5 16.36 13.96 15.63 14.71C14.93 15.43 14.5 16.42 14.5 17.5C14.5 18.25 14.71 18.96 15.08 19.56C15.28 19.9 15.54 20.21 15.84 20.47C16.54 21.11 17.47 21.5 18.5 21.5C19.96 21.5 21.23 20.72 21.92 19.56C22.13 19.22 22.29 18.83 22.38 18.43C22.46 18.13 22.5 17.82 22.5 17.5C22.5 16.48 22.11 15.54 21.47 14.83ZM20 18.23H19.25V19.01C19.25 19.42 18.91 19.76 18.5 19.76C18.09 19.76 17.75 19.42 17.75 19.01V18.23H17C16.59 18.23 16.25 17.89 16.25 17.48C16.25 17.07 16.59 16.73 17 16.73H17.75V16.02C17.75 15.61 18.09 15.27 18.5 15.27C18.91 15.27 19.25 15.61 19.25 16.02V16.73H20C20.41 16.73 20.75 17.07 20.75 17.48C20.75 17.89 20.41 18.23 20 18.23Z" fill="#C92B33"/>
<path d="M12.5 12.5C15.2614 12.5 17.5 10.2614 17.5 7.5C17.5 4.73858 15.2614 2.5 12.5 2.5C9.73858 2.5 7.5 4.73858 7.5 7.5C7.5 10.2614 9.73858 12.5 12.5 12.5Z" fill="#C92B33"/>
</svg>
