<svg width="25" height="25" viewBox="0 0 25 25" fill="none" xmlns="http://www.w3.org/2000/svg">
<path opacity="0.4" d="M9.5 2.5C6.88 2.5 4.75 4.63 4.75 7.25C4.75 9.82 6.76 11.9 9.38 11.99C9.46 11.98 9.54 11.98 9.6 11.99C9.62 11.99 9.63 11.99 9.65 11.99C9.66 11.99 9.66 11.99 9.67 11.99C12.23 11.9 14.24 9.82 14.25 7.25C14.25 4.63 12.12 2.5 9.5 2.5Z" fill="#00A254"/>
<path d="M14.58 14.65C11.79 12.79 7.23996 12.79 4.42996 14.65C3.15996 15.5 2.45996 16.65 2.45996 17.88C2.45996 19.11 3.15996 20.25 4.41996 21.09C5.81996 22.03 7.65996 22.5 9.49996 22.5C11.34 22.5 13.18 22.03 14.58 21.09C15.84 20.24 16.54 19.1 16.54 17.86C16.53 16.63 15.84 15.49 14.58 14.65Z" fill="#00A254"/>
<path opacity="0.4" d="M20.4899 7.84001C20.6499 9.78001 19.2699 11.48 17.3599 11.71C17.3499 11.71 17.3499 11.71 17.3399 11.71H17.3099C17.2499 11.71 17.1899 11.71 17.1399 11.73C16.1699 11.78 15.2799 11.47 14.6099 10.9C15.6399 9.98001 16.2299 8.60001 16.1099 7.10001C16.0399 6.29001 15.7599 5.55001 15.3399 4.92001C15.7199 4.73001 16.1599 4.61001 16.6099 4.57001C18.5699 4.40001 20.3199 5.86001 20.4899 7.84001Z" fill="#00A254"/>
<path d="M22.4902 17.09C22.4102 18.06 21.7902 18.9 20.7502 19.47C19.7502 20.02 18.4902 20.28 17.2402 20.25C17.9602 19.6 18.3802 18.79 18.4602 17.93C18.5602 16.69 17.9702 15.5 16.7902 14.55C16.1202 14.02 15.3402 13.6 14.4902 13.29C16.7002 12.65 19.4802 13.08 21.1902 14.46C22.1102 15.2 22.5802 16.13 22.4902 17.09Z" fill="#00A254"/>
</svg>
