<svg width="25" height="25" viewBox="0 0 25 25" fill="none" xmlns="http://www.w3.org/2000/svg">
<path opacity="0.4" d="M21 10.69H18.11C15.74 10.69 13.81 8.76 13.81 6.39V3.5C13.81 2.95 13.36 2.5 12.81 2.5H8.57C5.49 2.5 3 4.5 3 8.07V16.93C3 20.5 5.49 22.5 8.57 22.5H16.43C19.51 22.5 22 20.5 22 16.93V11.69C22 11.14 21.55 10.69 21 10.69Z" fill="#BB9D2A"/>
<path d="M16.3002 2.70999C15.8902 2.29999 15.1802 2.57999 15.1802 3.14999V6.63999C15.1802 8.09999 16.4202 9.30999 17.9302 9.30999C18.8802 9.31999 20.2002 9.31999 21.3302 9.31999C21.9002 9.31999 22.2002 8.64999 21.8002 8.24999C20.3602 6.79999 17.7802 4.18999 16.3002 2.70999Z" fill="#BB9D2A"/>
<path d="M12.0299 12.97L10.0299 10.97C10.0199 10.96 10.0099 10.96 10.0099 10.95C9.94994 10.89 9.86994 10.84 9.78994 10.8C9.77994 10.8 9.77994 10.8 9.76994 10.8C9.68994 10.77 9.60994 10.76 9.52994 10.75C9.49994 10.75 9.47994 10.75 9.44994 10.75C9.38994 10.75 9.31994 10.77 9.25994 10.79C9.22994 10.8 9.20994 10.81 9.18994 10.82C9.10994 10.86 9.02994 10.9 8.96994 10.97L6.96994 12.97C6.67994 13.26 6.67994 13.74 6.96994 14.03C7.25994 14.32 7.73994 14.32 8.02994 14.03L8.74994 13.31V17.5C8.74994 17.91 9.08994 18.25 9.49994 18.25C9.90994 18.25 10.2499 17.91 10.2499 17.5V13.31L10.9699 14.03C11.1199 14.18 11.3099 14.25 11.4999 14.25C11.6899 14.25 11.8799 14.18 12.0299 14.03C12.3199 13.74 12.3199 13.26 12.0299 12.97Z" fill="#BB9D2A"/>
</svg>
