<svg width="13" height="12" viewBox="0 0 13 12" fill="none" xmlns="http://www.w3.org/2000/svg">
<path opacity="0.4" d="M3.37017 8C3.42517 7.755 3.32517 7.405 3.15017 7.23L1.93517 6.015C1.55517 5.635 1.40517 5.23 1.51517 4.88C1.63017 4.53 1.98517 4.29 2.51517 4.2L4.07517 3.94C4.30017 3.9 4.57517 3.7 4.68017 3.495L5.54017 1.77C5.79017 1.275 6.13017 1 6.50017 1C6.87017 1 7.21017 1.275 7.46017 1.77L8.32017 3.495C8.38517 3.625 8.52017 3.75 8.66517 3.835L3.28017 9.22C3.21017 9.29 3.09017 9.225 3.11017 9.125L3.37017 8Z" fill="#344055"/>
<path d="M9.8499 7.23001C9.6699 7.41001 9.5699 7.75501 9.6299 8.00001L9.9749 9.50501C10.1199 10.13 10.0299 10.6 9.7199 10.825C9.5949 10.915 9.4449 10.96 9.2699 10.96C9.0149 10.96 8.7149 10.865 8.3849 10.67L6.9199 9.80001C6.6899 9.66501 6.3099 9.66501 6.0799 9.80001L4.6149 10.67C4.0599 10.995 3.5849 11.05 3.2799 10.825C3.1649 10.74 3.0799 10.625 3.0249 10.475L9.1049 4.39501C9.3349 4.16501 9.6599 4.06001 9.9749 4.11501L10.4799 4.20001C11.0099 4.29001 11.3649 4.53001 11.4799 4.88001C11.5899 5.23001 11.4399 5.63501 11.0599 6.01501L9.8499 7.23001Z" fill="#344055"/>
</svg>
